<svg width="200" height="80" viewBox="0 0 200 80" fill="none" xmlns="http://www.w3.org/2000/svg">
<path d="M1.48657 77.7719C3.05629 75.5246 4.6246 73.2773 6.19432 71.0286C30.5518 66.8107 57.3146 63.3212 86.2175 61.232C125.245 58.4116 160.994 58.6642 192.656 60.5318C189.576 60.68 186.496 60.8282 183.416 60.9765C154.915 59.9446 122.39 60.4753 86.7271 64.0298C55.2339 67.1692 26.6811 72.1297 1.48798 77.7705L1.48657 77.7719Z" fill="white"/>
<path d="M76.8874 49.7556C76.8112 49.4154 76.6489 49.1768 76.5472 49.0526C76.4414 48.9467 76.2649 48.7844 76.0024 48.6658C75.6678 48.5134 75.3615 48.5035 75.1992 48.5077L73.4784 39.8333L73.7706 39.7952C73.8525 39.9717 73.9329 40.1495 74.0148 40.3302C74.1009 40.5307 74.307 40.6309 74.4693 40.5843C74.6317 40.5321 74.6896 40.3599 74.6994 40.3401C74.7757 40.0296 74.8674 39.4748 74.7418 38.8C74.6317 38.2114 74.3973 37.7766 74.235 37.5183C74.1531 37.3418 73.9626 37.2458 73.7762 37.284C73.5941 37.3178 73.46 37.4759 73.4459 37.6623C73.412 37.8966 73.3838 38.1309 73.3499 38.361H73.0535L70.1074 25.5224L74.2774 25.4405L74.3592 25.775H75.8372C75.8711 25.7412 76.0913 25.5167 76.0673 25.1779C76.0475 24.8956 75.881 24.7234 75.8372 24.681C75.3347 24.681 74.8335 24.6853 74.331 24.6853C74.3268 24.8377 74.3211 24.9916 74.3211 25.144H70.0651C69.4341 22.2799 68.8031 19.4199 68.1721 16.5558C68.2921 16.5035 68.4403 16.4174 68.5928 16.2932C68.7551 16.1591 68.8751 16.0208 68.9513 15.9149C69.0953 15.7003 69.2675 15.4124 69.4059 15.0496C69.5499 14.6713 69.6162 14.3325 69.6444 14.0741C69.6487 13.7396 69.6162 13.2808 69.4581 12.7543C69.3296 12.3379 69.1617 12.0033 69.0134 11.7549C68.8412 11.5488 68.6069 11.3102 68.3105 11.0716C68.0183 10.8415 67.7416 10.6792 67.5115 10.555C67.1868 10.3926 66.9285 10.3065 66.8565 10.2825C66.5982 10.2007 66.3681 10.1541 66.1817 10.1244C66.186 9.78988 66.1916 9.45533 66.1959 9.11513C66.282 9.11936 66.3681 9.12501 66.4542 9.12501C66.4683 7.08381 66.4782 5.0412 66.4881 3H64.3833C64.3876 5.04685 64.3876 7.09369 64.3932 9.13489C64.4793 9.13489 64.5697 9.13066 64.6558 9.12501V10.1047C64.5118 10.1047 64.3353 10.1188 64.1391 10.1569C63.8624 10.2148 63.6324 10.3051 63.4644 10.387C63.2399 10.5112 62.9915 10.6637 62.7275 10.8599C62.3647 11.1366 62.0768 11.4245 61.8565 11.673C61.6984 11.8791 61.5121 12.1755 61.3681 12.5581C61.1578 13.1227 61.1296 13.6238 61.138 13.9443C61.186 14.2929 61.3004 14.8152 61.5926 15.3884C61.8932 15.9812 62.2673 16.392 62.5299 16.6419L60.675 25.0579H56.4712C56.4571 24.9478 56.4373 24.8335 56.4232 24.7234H54.9071C54.8648 24.7855 54.7349 24.9859 54.749 25.2683C54.7589 25.5026 54.8591 25.6649 54.9071 25.7327L56.4232 25.8188V25.4405L60.5931 25.3981C58.9048 33.0872 57.2222 40.7763 55.5381 48.4654C55.3998 48.4696 55.1937 48.4936 54.9693 48.5896C54.8408 48.6418 54.7349 48.7039 54.6531 48.7618C54.5288 48.8578 54.3129 49.0442 54.1505 49.3448C53.9981 49.6173 53.9543 49.8714 53.9402 50.0238C53.9543 50.1918 53.9882 50.4021 54.0686 50.6407C54.1548 50.8948 54.2649 51.0952 54.3608 51.2434C54.4992 51.3437 54.7095 51.4679 54.9876 51.554C55.2558 51.6401 55.4944 51.6641 55.6666 51.6641L56.3357 53.1364V55.412H56.7183L57.0105 53.0969L57.3507 52.9684L63.4093 25.4772H64.7574L64.8435 26.8253C64.8478 26.9594 65.1357 27.7908 65.4505 27.7725C65.6707 27.7626 65.8669 27.3561 65.9573 26.8253C65.9771 26.3764 65.9996 25.9261 66.0194 25.4772L67.3251 25.3953L73.4318 52.967L73.724 53.0955L74.1066 55.4105H74.4849V52.967C74.5907 52.8047 74.715 52.5845 74.8152 52.312C74.9211 52.0297 74.9676 51.777 74.9874 51.5808C75.0735 51.6091 75.2119 51.6528 75.3841 51.6472C75.5422 51.6429 75.6664 51.6091 75.7469 51.5808C75.9191 51.5046 76.1393 51.3846 76.3637 51.2082C76.5261 51.0741 76.6559 50.94 76.7562 50.8214C76.8225 50.6774 76.9947 50.2666 76.8846 49.7556H76.8874ZM65.9079 25.0184C65.9502 24.7559 65.9799 24.4397 65.97 24.0811C65.9658 23.7748 65.9319 23.4981 65.8881 23.268C65.8924 22.9335 65.658 22.6751 65.4237 22.661C65.1513 22.637 64.8351 22.9335 64.8732 23.3301C64.8633 23.5884 64.8633 23.8567 64.8633 24.1333C64.8675 24.4397 64.8774 24.7361 64.8972 25.0184H63.5053L64.9692 18.4487H65.73L67.2461 25.0184H65.9079ZM67.9928 15.689C67.911 15.3728 67.8305 15.058 67.7486 14.7418C67.3082 15.2486 66.8635 15.7554 66.4245 16.2579C66.3384 16.1859 65.9516 15.8711 65.3729 15.8895C64.8379 15.9135 64.4934 16.2099 64.4017 16.2918C63.9189 15.7173 63.4361 15.1484 62.9534 14.5753C62.887 14.9381 62.8193 15.298 62.7529 15.6608C62.5948 15.5083 62.3563 15.2303 62.184 14.8294C62.0401 14.4948 61.9977 14.1927 61.9836 13.988C61.9737 13.7339 61.9878 13.2893 62.2038 12.798C62.3421 12.4818 62.52 12.2475 62.6583 12.0951C62.8207 11.8748 63.0931 11.5601 63.5095 11.282C63.9881 10.9714 64.4426 10.8415 64.7193 10.7893C64.7292 10.9375 64.7334 11.09 64.7433 11.2382C65.1837 11.2424 65.6284 11.2481 66.0674 11.2523V10.7879C66.2975 10.8218 66.5939 10.8881 66.9186 11.0265C67.239 11.1648 67.4875 11.3229 67.6696 11.4612C67.8616 11.6193 68.1185 11.872 68.3387 12.2405C68.4869 12.479 68.5773 12.7049 68.6351 12.8912C68.6775 13.0394 68.7212 13.2116 68.7495 13.398C68.7918 13.6662 68.8073 13.9047 68.8017 14.1108C68.7876 14.3169 68.7297 14.6557 68.5293 15.0284C68.357 15.3488 68.1368 15.5634 67.9943 15.6876L67.9928 15.689Z" fill="white"/>
<path d="M14.8222 54.9984H21.1463V32.4337H28.7506V27.1443H7.34204V32.4337H14.8222V54.9984Z" fill="white" stroke="white" stroke-width="0.5" stroke-miterlimit="10"/>
<path d="M32.0979 54.9984V27.1443H49.29V32.3109H38.4219V38.0957H48.6703V43.2213H38.4219V49.8333H49.8688V54.9984H32.0979Z" fill="white" stroke="white" stroke-width="0.5" stroke-miterlimit="10"/>
<path d="M99.7523 49.2954L100.704 54.2135C97.7139 55.2722 95.1575 55.4317 93.5539 55.412C91.651 55.388 88.9647 55.3555 86.0243 53.7815C83.4552 52.4066 81.9942 50.5518 81.4959 49.8714C78.8011 46.1983 78.8477 42.2613 78.8801 41.0389C78.9126 39.7726 79.1893 35.4376 82.4529 31.7278C82.755 31.3848 84.0311 29.9675 86.054 28.803C92.1183 25.3078 99.2074 27.3462 101.035 27.9292C100.608 29.5963 100.181 31.2634 99.7537 32.9305C98.8122 32.5127 94.6084 30.7651 90.581 32.6002C88.928 33.354 87.9131 34.4339 87.7112 34.6541C85.7731 36.7617 85.4921 39.2151 85.4046 40.0832C85.2988 41.1306 85.2028 43.7703 86.8388 46.3282C87.2411 46.9564 88.1488 48.3383 89.9049 49.2813C91.555 50.1678 93.0627 50.1876 94.5039 50.2059C95.6741 50.2214 97.5474 50.1015 99.7523 49.2968V49.2954Z" fill="white" stroke="white" stroke-width="0.5" stroke-miterlimit="10"/>
<path d="M104.836 27.1443H111.158V37.8472H121.532V27.1443H127.814V54.9984H121.532V43.3441H111.158V54.9984H104.836V27.1443Z" fill="white" stroke="white" stroke-width="0.5" stroke-miterlimit="10"/>
<path d="M133.311 27.1443H150.504V32.3109H139.635V38.0957H149.883V43.2213H139.635V49.8333H151.082V54.8219H133.311V27.1443Z" fill="white" stroke="white" stroke-width="0.5" stroke-miterlimit="10"/>
<path d="M174.179 46.917C174.028 46.2422 173.655 44.9972 172.66 43.7663C171.816 42.7259 170.88 42.1344 170.297 41.8267C173.565 40.6353 175.617 37.4083 175.304 34.0628C174.965 30.4519 171.947 27.5242 168.187 27.2842C165.999 27.0626 163.508 26.9454 160.776 27.0456C158.83 27.1176 157.026 27.2884 155.38 27.5157V54.9985H161.621V44.0472C162.46 44.0472 163.298 44.0472 164.137 44.0486C164.509 44.0909 165.437 44.249 166.302 44.976C167.341 45.8484 167.611 46.9664 167.681 47.3108L169.969 54.9985H176.416C175.671 52.3051 174.924 49.6103 174.179 46.917ZM165.6 39.5215C164.961 39.5963 164.234 39.6429 163.434 39.6302C162.773 39.6203 162.166 39.5695 161.621 39.5003V31.8141C162.052 31.7181 162.536 31.6362 163.068 31.5868C163.897 31.5092 164.639 31.5289 165.262 31.5868C167.486 31.7082 169.193 33.573 169.144 35.6664C169.098 37.5735 167.604 39.2491 165.6 39.5215Z" fill="white" stroke="white" stroke-width="0.5" stroke-miterlimit="10"/>
<path d="M185.159 7.21936H189.209V16.2283H197.847V20.1131H189.209V29.2053H185.159V20.1131H176.522V16.2283H185.159V7.21936Z" fill="white"/>
</svg>
